<svg viewBox="0 0 300 106" xmlns="http://www.w3.org/2000/svg" fill-rule="evenodd" clip-rule="evenodd" stroke-miterlimit="10"><path d="M0 .315h73.216v104.912H0V.315zm62.626 10.569H10.543v83.782h52.083V10.884z" fill="#fdd700" fill-rule="nonzero"/><path d="M112.067 48.663h-3.622c-4.757-6.709-9.466-13.374-14.176-20.911h-.036v20.911h-3.999V19.498h3.622c4.757 6.665 9.459 13.301 14.132 20.786h.08V19.498h3.999v29.165zm9.5-11.536c1.168-3.838 2.333-7.375 3.373-11.887h.091c1.168 4.512 2.205 8.049 3.292 11.887h-6.756zm1.919-17.629l-10.078 29.165h4.325l2.542-7.954h8.8l2.285 7.954h5.589l-9.291-29.165h-4.172zm18.171 29.165V23.417h-7.664v-3.919h20.332v3.919h-7.665v25.246h-5.003z" fill="#010101" fill-rule="nonzero"/><path d="M158.427 48.67V19.498" fill="none" stroke="#010101" stroke-width="5"/><path d="M176.327 45.001c-5.208 0-7.039-5.757-7.039-11.338 0-5.376 2.08-10.503 7.039-10.503 4.965 0 7.038 5.127 7.038 10.503 0 5.581-1.831 11.338-7.038 11.338m0 4.167c7.624 0 12.37-6.797 12.37-15.505 0-8.174-5.244-14.663-12.37-14.663-7.127 0-12.371 6.489-12.371 14.663 0 8.709 4.746 15.505 12.371 15.505m37.258-.505h-3.633c-4.746-6.709-9.463-13.374-14.165-20.911h-.029v20.911h-4.014V19.498h3.633c4.746 6.665 9.463 13.301 14.121 20.786h.095V19.498h3.992v29.165zm9.507-11.536c1.165-3.838 2.329-7.375 3.369-11.887h.088c1.165 4.512 2.212 8.049 3.296 11.887h-6.753zm1.919-17.629l-10.1 29.165h4.336l2.549-7.954h8.796l2.285 7.954h5.581l-9.287-29.165h-4.16zm14.912 0h4.966v25.254h9.866v3.911h-14.832V19.498zM108.995 73.067v12.048c-2.67 1.048-5.46 1.795-8.295 1.795-8.58 0-14.004-6.665-14.004-15.249 0-7.969 5.424-14.927 14.169-14.927 2.706 0 5.416 1.003 7.079 2.249l-1.619 3.464c-1.336-.835-3.42-1.545-5.332-1.545-5.339 0-8.961 4.211-8.961 10.833 0 6.922 4.167 11.008 8.467 11.008 1.326 0 2.45-.168 3.494-.71v-8.965h5.002v-.001zm17.875-11.909h-8.339v7.998h8.167v3.911h-8.167v9.419h9.84v3.926h-14.835v-29.18h13.334v3.926zm15.417 21.584c-5.204 0-7.042-5.749-7.042-11.337 0-5.369 2.084-10.503 7.042-10.503 4.966 0 7.042 5.134 7.042 10.503.001 5.588-1.838 11.337-7.042 11.337m0 4.168c7.628 0 12.374-6.797 12.374-15.505 0-8.167-5.247-14.67-12.374-14.67-7.126 0-12.374 6.504-12.374 14.67 0 8.708 4.746 15.505 12.374 15.505m36.384-13.843v12.048c-2.659 1.048-5.457 1.795-8.284 1.795-8.591 0-14.019-6.665-14.019-15.249 0-7.969 5.428-14.927 14.18-14.927 2.71 0 5.42 1.003 7.075 2.249l-1.611 3.464c-1.348-.835-3.428-1.545-5.347-1.545-5.332 0-8.965 4.211-8.965 10.833 0 6.922 4.175 11.008 8.467 11.008 1.333 0 2.461-.168 3.501-.71v-8.965h5.003v-.001zm9.587-11.909h2.212c2.951 0 4.614 1.699 4.614 4.709 0 3.904-2.366 5.662-4.746 5.786-.498.051-1.663.081-2.08.132V61.158zm12.663 25.254l-5.866-12.085c3.208-1.714 5.039-5.171 5.039-8.672 0-5.669-3.457-8.423-9.053-8.423h-7.778v29.18h4.995V75.404h2.241l4.717 11.008h5.705zm8.255-11.543c1.157-3.838 2.337-7.383 3.376-11.88h.081c1.165 4.497 2.212 8.042 3.296 11.88h-6.753zm1.919-17.637l-10.093 29.18h4.336l2.542-7.961h8.796l2.285 7.961h5.596l-9.294-29.18h-4.168zm20.039 29.18h-5.002v-29.18h7.8c5.581 0 9.046 2.754 9.046 8.423 0 4.907-3.626 9.749-9.596 9.749h-2.336v-3.619c.249-.051 1.633-.081 2.168-.132 2.388-.125 4.754-1.882 4.754-5.786 0-3.01-1.663-4.709-4.586-4.709h-2.248v25.254zm35.01 0h-5.002V72.364h-10.379v14.048h-4.951v-29.18h4.951v11.221h10.379V57.32h5.002v29.092z" fill="#010101" fill-rule="nonzero"/><path d="M273.417 86.412v-29.18" fill="none" stroke="#010101" stroke-width="5"/><path d="M298.399 62.535c-1.216-.754-3.208-1.633-5.127-1.633-5.083 0-8.797 4.211-8.797 10.833 0 6.922 4.088 11.008 8.914 11.008 1.919 0 3.721-.622 5.01-1.457l1.377 3.625c-1.509 1.041-4.16 2-6.584 2-8.592 0-14.004-6.665-14.004-15.256 0-7.961 5.368-14.919 14.084-14.919 2.593 0 4.995 1.084 6.709 2.249l-1.582 3.55z" fill="#010101" fill-rule="nonzero"/></svg>