<svg viewBox="0 0 318 339" xmlns="http://www.w3.org/2000/svg" fill-rule="evenodd" clip-rule="evenodd" stroke-linejoin="round" stroke-miterlimit="2"><path d="M306.909 141.714c-3.341-35.383-17.774-61.945-34.403-80.796-16.637-18.887-35.345-30.308-47.835-36.652-8.041-4.075-17.894-7.326-28.971-9.65-11.054-2.301-23.316-3.655-36.014-3.655-17.205 0-35.236 2.466-52.052 8.625-20.988 7.737-43.596 23.194-61.852 46.049-18.214 22.834-31.9 53.223-34.119 90.116a182.12 182.12 0 00-.337 10.971c-.014 34.099 9.925 61.723 22.762 82.903 12.834 21.214 28.479 36.1 40.036 45.562 13.051 10.636 29.146 18.267 42.397 22.855 33.103 11.468 55.009 11.536 64.172 11.536 8.102 0 12.646-.615 13.064-.675l-.015-.105a7.613 7.613 0 006.519-7.539v-4.35c0-4.218-3.409-7.627-7.61-7.627-.553 0-1.076.06-1.592.175l-.007-.032h-.03l.007.037-.007-.037c-.365.055-3.946.486-10.329.486-7.998 0-31.914-.583-58.425-10.724-11.766-4.506-25.894-11.146-35.688-19.218-10.448-8.548-24.405-21.896-35.67-40.531-11.249-18.648-19.901-42.454-19.924-72.717 0-3.184.101-6.451.308-9.782 1.991-32.672 13.938-59.023 29.865-79.039 15.906-20.002 35.959-33.522 53.246-39.845 14.092-5.181 29.96-7.436 45.281-7.422 11.297 0 22.292 1.211 31.994 3.244 9.701 2.019 18.116 4.887 24.098 7.938 11.031 5.589 27.624 15.785 41.973 32.106 14.351 16.37 26.593 38.645 29.583 69.646.314 3.309.463 6.622.463 9.926.023 28.371-11.494 56.34-30.934 77.043-19.486 20.704-46.527 34.112-78.113 34.126-.583 0-1.143 0-1.704-.014-21.528-.312-45.341-5.979-64.535-20.493-9.622-7.272-18.203-16.743-25.068-29.179-6.857-12.454-11.999-27.927-14.422-47.208L73 167.65l-.016-.143v-.009c-.053-.386-.429-3.286-.429-7.893-.009-7.994 1.136-21.076 6.752-35.187 5.646-14.109 15.6-29.27 33.886-42.251 11.072-7.975 30.62-13.543 50.438-13.47 16.867-.021 33.844 3.88 46.474 11.907 16.765 10.621 26.779 24 32.857 37.398 6.062 13.367 7.988 26.821 7.975 36.581 0 1.652-.053 3.198-.151 4.635-.619 9.508-2.182 16.354-3.977 21.186-.665 1.817-1.636 4.749-3.108 6.287-1.486 1.541-3.482 1.675-3.781 1.211-.284-.454-.344-1.119-.314-1.688.015-.605.143-2.404.143-2.404v-19.57c-.007-12.6-.158-20.3-.897-25.792-.366-2.727-.903-4.97-1.718-6.93-.801-1.94-1.907-3.556-3.155-4.955-2.354-2.841-5.621-5.075-10.149-6.347-4.553-1.313-10.456-1.954-19.172-2.299-.777-.032-4.744-.179-6.456-.179h-.444c-1.277 0-4.453.101-5.237.133-8.416.285-14.275.845-18.837 1.941-3.198.757-5.8 1.872-7.94 3.322-2.067-1.409-4.577-2.496-7.615-3.244-4.384-1.093-9.989-1.661-17.941-1.974-.777-.032-4.751-.179-6.465-.179h-.438c-1.278 0-4.453.101-5.242.133-9.193.313-15.352.94-20.076 2.258-4.701 1.271-8.053 3.533-10.494 6.429l-.043.064a18.035 18.035 0 00-2.965 4.965c-2.241 5.873-2.503 13.743-2.542 32.652v35.8a7.264 7.264 0 007.267 7.269h4.352c4.011 0 7.258-3.253 7.267-7.269V164.24c0-10.792.007-17.129.275-20.864.119-1.863.321-3.042.527-3.739.214-.688.345-.896.643-1.271.277-.313.636-.61 1.386-.968 2.317-1.147 8.409-1.979 20.312-2.157 7.688.138 12.793.481 15.991 1.106 1.606.303 2.71.66 3.426 1.005.723.357 1.067.655 1.372 1.014l.117.138c.321.372.434.523.665 1.18.328.973.627 3.115.732 6.997.131 3.868.138 9.462.131 17.561v35.741c0 .046.007.083.014.119.041 3.992 3.271 7.209 7.259 7.209h4.351a7.262 7.262 0 007.264-7.209c0-.036.016-.073.016-.119V164.24c0-10.792 0-17.129.269-20.864.119-1.863.328-3.042.537-3.739.211-.688.337-.896.629-1.271.284-.313.642-.61 1.39-.968 2.317-1.147 8.416-1.979 20.314-2.157 7.684.138 12.795.481 15.996 1.106 1.599.303 2.705.66 3.423 1.005.716.357 1.06.655 1.36 1.014l.126.138c.321.372.435.523.666 1.18.328.973.626 3.115.731 6.997.136 3.868.136 9.462.136 17.561v27.34s-1.615 20.011 16.533 20.048c3.139 0 6.635-.748 10.26-2.533 5.449-2.685 10.892-7.833 14.911-15.712 4.052-7.901 6.878-18.469 7.849-32.863.119-1.868.195-3.841.195-5.934-.017-12.242-2.317-28.252-9.732-44.688-7.384-16.406-20.06-33.178-40.264-45.913-16.847-10.613-37.221-14.934-56.981-14.957-23.295.083-45.848 5.899-61.808 17.086-21.56 15.241-33.997 33.928-40.779 51.034-6.812 17.129-8.143 32.671-8.152 42.459 0 5.818.475 9.627.622 10.636 2.68 21.402 8.517 39.366 16.708 54.225 12.27 22.319 29.849 37.389 48.8 46.635 18.97 9.282 39.235 12.936 57.742 13.22a96.02 96.02 0 001.986.014c37.297.019 69.704-16.051 92.447-40.33 22.774-24.297 36.242-56.835 36.271-90.511a126.45 126.45 0 00-.566-11.784" fill="#e16340" fill-rule="nonzero"/></svg>