<svg viewBox="0 0 1230 354" xmlns="http://www.w3.org/2000/svg" fill-rule="evenodd" clip-rule="evenodd" stroke-linejoin="round" stroke-miterlimit="2"><path d="M359.678 7.091a51.911 51.911 0 00-14.122-1.958c-23.164 0-43.656 15.509-49.946 37.804l-37.585 132.549-93.627-146.46C153.615 11.681 133.533 2.27 113.304 5.085c-20.267 3.208-36.851 18.06-42.266 37.852L2.021 285.967c-7.868 27.437 8.17 56.499 35.579 64.469a53.457 53.457 0 0014.311 2.407c23.094-.135 43.464-15.631 49.756-37.852l37.585-132.549L232.88 329.57A51.676 51.676 0 00276.763 354c23.12 0 43.554-15.529 49.744-37.805l68.749-244.234a52.154 52.154 0 002.129-14.75c0-23.173-15.442-43.698-37.707-50.12zm423.062 0a51.771 51.771 0 00-14.214-1.99c-23.154 0-43.624 15.536-49.854 37.836l-24.477 86.538H577.428l16.452-57.514a51.894 51.894 0 004.036-20.065C597.916 23.427 574.489 0 546.02 0c-25.102 0-46.784 18.212-51.118 42.937l-69.819 243.03a52.045 52.045 0 00-2.163 14.846c0 28.543 23.487 52.03 52.03 52.03h.023c23.123-.045 43.543-15.579 49.756-37.852l24.611-86.404h116.767l-16.452 57.38c-7.868 27.437 8.17 56.499 35.579 64.469a53.457 53.457 0 0014.311 2.407c22.996-.253 43.224-15.724 49.489-37.852l69.284-243.03a52.154 52.154 0 002.129-14.75c0-23.173-15.442-43.698-37.707-50.12zm437.24 18.725A51.525 51.525 0 001178.7 5.11a51.461 51.461 0 00-31.21 10.541l-146.2 111.417 15.25-55.107a51.968 51.968 0 002.75-16.677c0-28.47-23.423-51.897-51.893-51.897-23.977 0-44.983 16.618-50.503 39.951l-68.615 242.629c-7.868 27.437 8.17 56.499 35.578 64.469a53.488 53.488 0 0014.312 2.006c23.094-.135 43.464-15.631 49.756-37.852l29.694-104.595a18.142 18.142 0 001.605 1.605c.668.802 1.07 1.739 1.738 2.407l112.358 121.716a51.504 51.504 0 0037.97 16.711 51.52 51.52 0 0035.19-13.902c20.87-19.52 22.07-52.717 2.67-73.698l-73.16-79.45 113.96-86.672c22.68-17.284 27.2-50.127 10.03-72.896z" fill="gray" fill-rule="nonzero"/></svg>